HIERARCHY
ROOT Hips
{
	OFFSET 0.000000 0.000000 0.000000
	CHANNELS 6 Xposition Yposition Zposition Zrotation Yrotation Xrotation 
	JOINT LHipJoint
	{
		OFFSET 0.000000 0.000000 0.000000
		CHANNELS 3 Zrotation Yrotation Xrotation
		JOINT LeftUpLeg
		{
			OFFSET 1.363060 -1.794630 0.839290
			CHANNELS 3 Zrotation Yrotation Xrotation
			JOINT LeftLeg
			{
				OFFSET 2.448110 -6.726130 0.000000
				CHANNELS 3 Zrotation Yrotation Xrotation
				JOINT LeftFoot
				{
					OFFSET 2.562200 -7.039590 0.000000
					CHANNELS 3 Zrotation Yrotation Xrotation
					JOINT LeftToeBase
					{
						OFFSET 0.157640 -0.433110 2.322550
						CHANNELS 3 Zrotation Yrotation Xrotation
						End Site
						{
							OFFSET 0.000000 0.000000 0.000000
						}
					}
				}
			}
		}
	}
	JOINT RHipJoint
	{
		OFFSET 0.000000 0.000000 0.000000
		CHANNELS 3 Zrotation Yrotation Xrotation
		JOINT RightUpLeg
		{
			OFFSET -1.305520 -1.794630 0.839290
			CHANNELS 3 Zrotation Yrotation Xrotation
			JOINT RightLeg
			{
				OFFSET -2.542530 -6.985550 0.000000
				CHANNELS 3 Zrotation Yrotation Xrotation
				JOINT RightFoot
				{
					OFFSET -2.568260 -7.056230 0.000000
					CHANNELS 3 Zrotation Yrotation Xrotation
					JOINT RightToeBase
					{
						OFFSET -0.164730 -0.452590 2.363150
						CHANNELS 3 Zrotation Yrotation Xrotation
						End Site
						{
							OFFSET 0.000000 0.000000 0.000000
						}
					}
				}
			}
		}
	}
	JOINT LowerBack
	{
		OFFSET 0.000000 0.000000 0.000000
		CHANNELS 3 Zrotation Yrotation Xrotation
		JOINT Spine
		{
			OFFSET 0.028270 2.035590 -0.193380
			CHANNELS 3 Zrotation Yrotation Xrotation
			JOINT Spine1
			{
				OFFSET 0.056720 2.048850 -0.042750
				CHANNELS 3 Zrotation Yrotation Xrotation
				JOINT Neck
				{
					OFFSET 0.000000 0.000000 0.000000
					CHANNELS 3 Zrotation Yrotation Xrotation
					JOINT Neck1
					{
						OFFSET -0.054170 1.746240 0.172020
						CHANNELS 3 Zrotation Yrotation Xrotation
						JOINT Head
						{
							OFFSET 0.104070 1.761360 -0.123970
							CHANNELS 3 Zrotation Yrotation Xrotation
							End Site
							{
								OFFSET 0.000000 0.000000 0.000000
							}
						}
					}
				}
				JOINT LeftShoulder
				{
					OFFSET 0.000000 0.000000 0.000000
					CHANNELS 3 Zrotation Yrotation Xrotation
					JOINT LeftArm
					{
						OFFSET 3.362410 1.200890 -0.311210
						CHANNELS 3 Zrotation Yrotation Xrotation
						JOINT LeftForeArm
						{
							OFFSET 4.983000 -0.000000 -0.000000
							CHANNELS 3 Zrotation Yrotation Xrotation
							JOINT LeftHand
							{
								OFFSET 3.483560 -0.000000 -0.000000
								CHANNELS 3 Zrotation Yrotation Xrotation
								JOINT LeftFingerBase
								{
									OFFSET 0.000000 0.000000 0.000000
									CHANNELS 3 Zrotation Yrotation Xrotation
									JOINT LeftHandIndex1
									{
										OFFSET 0.715260 -0.000000 -0.000000
										CHANNELS 3 Zrotation Yrotation Xrotation
										End Site
										{
											OFFSET 0.000000 0.000000 0.000000
										}
									}
								}
								JOINT LThumb
								{
									OFFSET 0.000000 0.000000 0.000000
									CHANNELS 3 Zrotation Yrotation Xrotation
									End Site
									{
										OFFSET 0.000000 0.000000 0.000000
									}
								}
							}
						}
					}
				}
				JOINT RightShoulder
				{
					OFFSET 0.000000 0.000000 0.000000
					CHANNELS 3 Zrotation Yrotation Xrotation
					JOINT RightArm
					{
						OFFSET -3.136600 1.374050 -0.404650
						CHANNELS 3 Zrotation Yrotation Xrotation
						JOINT RightForeArm
						{
							OFFSET -5.241900 -0.000000 -0.000000
							CHANNELS 3 Zrotation Yrotation Xrotation
							JOINT RightHand
							{
								OFFSET -3.444170 -0.000000 -0.000000
								CHANNELS 3 Zrotation Yrotation Xrotation
								JOINT RightFingerBase
								{
									OFFSET 0.000000 0.000000 0.000000
									CHANNELS 3 Zrotation Yrotation Xrotation
									JOINT RightHandIndex1
									{
										OFFSET -0.622530 -0.000000 -0.000000
										CHANNELS 3 Zrotation Yrotation Xrotation
										End Site
										{
											OFFSET 0.000000 0.000000 0.000000
										}
									}
								}
								JOINT RThumb
								{
									OFFSET 0.000000 0.000000 0.000000
									CHANNELS 3 Zrotation Yrotation Xrotation
									End Site
									{
										OFFSET 0.000000 0.000000 0.000000
									}
								}
							}
						}
					}
				}
			}
		}
	}
}
MOTION
Frames: 5
Frame Time: 0.008333
1.150070 17.830804 1.187994 -2.669011 -46.240901 -0.611513 -3.255828 4.516857 5.023778 -10.796459 -5.701141 -20.572887 2.453666 9.817801 32.007556 -1.913897 8.054783 -0.849289 0.046400 -1.390800 -3.824700 -2.205163 -5.881652 4.627056 18.678090 9.370522 3.438366 -5.457159 -10.695619 40.365723 2.267166 -9.063726 1.156575 -1.537300 7.827300 -22.190700 2.515089 1.220513 -4.668807 -0.772420 0.592483 11.844912 2.934386 0.834643 -4.987032 -8.394990 -0.586980 -7.274166 -1.630155 0.185197 12.780544 1.811700 -0.305700 4.249800 -6.689639 -2.780285 -0.797506 -30.918330 -30.618631 55.986215 34.652642 -43.159686 -16.058795 0.516933 -1.207093 -5.171473 -0.625068 17.862832 -0.336700 -7.125000 0.000000 0.000000 -27.593900 47.027700 -1.491200 9.248709 3.014086 -0.625427 61.685262 6.040781 25.390753 -6.481123 6.274062 -0.541426 0.821384 -1.264507 38.209390 -18.604451 2.967124 -1.257800 7.125000 0.000000 0.000000 5.000500 -26.300000 2.275400 
1.122356 17.849863 1.278526 -2.801206 -45.645225 -0.971097 -3.282687 4.561890 5.107146 -10.880195 -5.365615 -19.893017 2.389024 9.718473 31.730396 -1.812240 7.688327 -0.444634 0.060900 -1.591800 -4.378900 -2.210167 -5.902543 4.605848 18.611330 9.232308 3.839852 -5.568232 -10.803711 40.699533 2.312797 -9.299410 2.812613 -1.464400 7.647700 -21.649100 2.499901 1.202928 -5.131214 -0.775145 0.542348 11.673876 2.866299 0.814506 -4.655931 -8.538673 -0.509910 -7.169140 -1.687921 0.298887 14.475593 1.644100 -0.304100 4.202100 -6.618901 -3.090804 -0.798063 -28.915398 -32.018978 54.711419 33.080332 -42.003651 -14.853787 0.480247 -1.256765 -5.018351 0.201651 18.396716 -0.055200 -7.125000 0.000000 0.000000 -27.123500 47.660300 -1.914700 9.118504 3.310187 -0.452440 60.252126 8.344439 26.473527 -6.883109 6.938324 -0.643382 0.875218 -1.298203 36.609626 -19.694320 3.199354 -1.439400 7.125000 0.000000 0.000000 4.130200 -25.988700 1.907400 
1.095615 17.872520 1.368863 -2.828880 -45.299828 -1.352421 -3.318069 4.609090 5.184353 -11.032520 -5.054977 -19.139426 2.313726 9.601499 31.401485 -1.766272 7.518691 -0.272563 0.089300 -1.927400 -5.305100 -2.211279 -5.916962 4.570353 18.374252 9.258225 4.144053 -5.675804 -10.923501 41.018335 2.347328 -9.573233 4.485521 -1.397100 7.477600 -21.138200 2.377405 1.188962 -5.522714 -0.630351 0.507808 11.311047 2.823934 0.807270 -4.396361 -8.775010 -0.409491 -7.186415 -2.074328 0.534459 16.092374 1.588800 -0.280500 4.559500 -6.574565 -3.369136 -0.789883 -26.997268 -33.109914 53.210274 31.640133 -40.908822 -13.788645 0.453141 -1.296754 -4.621999 0.638248 18.674849 0.100700 -7.125000 0.000000 0.000000 -26.876300 48.003300 -2.137100 8.957054 3.586231 -0.279686 58.641748 10.515543 27.673799 -7.378231 7.755283 -0.768626 0.907976 -1.271713 34.744973 -20.316518 3.322590 -1.537700 7.125000 0.000000 0.000000 3.661600 -25.831800 1.703500 
1.071499 17.895955 1.456380 -2.912762 -45.042293 -1.664862 -3.360105 4.663202 5.264948 -11.110276 -4.846482 -18.323731 2.215294 9.457769 30.977080 -1.729475 7.385921 -0.308122 0.120200 -2.234600 -6.154600 -2.215832 -5.928553 4.527703 18.133283 9.273181 4.325600 -5.797795 -11.053245 41.365071 2.377121 -9.923054 6.282128 -1.360700 7.383400 -20.856200 2.383576 1.209359 -5.888665 -0.546285 0.524368 10.945106 2.711730 0.818255 -4.161602 -8.932445 -0.305683 -7.227224 -2.402218 0.775419 17.616604 1.536100 -0.248700 4.900900 -6.512830 -3.632727 -0.785068 -24.946590 -34.157255 51.336039 30.266111 -39.826031 -12.805125 0.426905 -1.322947 -3.940443 0.932351 18.505806 0.204000 -7.125000 0.000000 0.000000 -26.530500 47.913400 -2.043000 8.778233 3.849091 -0.123945 56.989735 12.554918 29.005315 -8.023592 8.792977 -0.938204 0.944924 -1.217780 32.401546 -20.930034 3.492477 -1.651300 7.125000 0.000000 0.000000 3.211700 -25.638200 1.508100 
1.047870 17.918904 1.543994 -3.103162 -44.815239 -1.998447 -3.414290 4.741148 5.377954 -11.071208 -4.798998 -17.304755 2.089761 9.272487 30.417892 -1.718923 7.341366 -0.428718 0.122100 -2.253100 -6.205600 -2.233313 -5.944657 4.493820 18.017896 9.319502 4.586373 -5.943410 -11.197107 41.804384 2.323933 -10.094628 8.257154 -1.272200 7.148900 -20.157200 2.606480 1.254343 -6.246218 -0.680299 0.567825 10.833097 2.518302 0.831409 -3.920333 -8.782939 -0.172661 -7.299814 -2.739883 1.043847 18.954850 1.442900 -0.188200 5.207700 -6.401445 -3.889985 -0.794069 -22.586451 -35.213636 49.081389 29.073497 -38.846389 -11.963032 0.383404 -1.355281 -3.225176 1.674507 18.562735 0.467900 -7.125000 0.000000 0.000000 -25.887300 48.095800 -2.110100 8.571974 4.115137 0.005967 55.342367 14.644968 30.409885 -8.820972 10.027470 -1.152895 1.018799 -1.080051 29.646309 -21.418046 2.963025 -1.430400 7.125000 0.000000 0.000000 2.870000 -26.290500 1.303500 
